<svg preserveAspectRatio="none" overflow="visible" style="display: block;" width="261.8" height="144" viewBox="0 0 261.8 144" fill="none" xmlns="http://www.w3.org/2000/svg">
<g id="Illustration=Auto">
<g id="Vector">
<path fill-rule="evenodd" clip-rule="evenodd" d="M233.655 54.1376C233.917 54.2682 234.186 54.4014 234.459 54.5373C234.465 54.54 234.47 54.5428 234.476 54.5455" fill="#A6896C"/>
<path fill-rule="evenodd" clip-rule="evenodd" d="M234.459 54.5373C234.465 54.54 234.47 54.5428 234.476 54.5455L234.459 54.5373Z" fill="#A6896C"/>
<path d="M234.459 54.5373L234.476 54.5455C239.323 56.9517 245.836 60.1845 249.209 64.1011C246.574 67.9149 246.231 73.52 246.321 78.0102C231.833 81.1171 216.328 82.7461 201.538 83.9728C193.886 84.6074 184.316 85.2909 176.728 85.1685C169.014 77.8846 152.992 73.209 142.557 73.539C142.314 73.5467 142.071 73.5573 141.828 73.571C137.688 69.4201 132.115 66.7027 126.768 64.0949C126.701 64.0627 126.633 64.0292 126.567 63.9969C126.468 63.9487 126.369 63.9005 126.27 63.8524C125.118 63.2899 123.977 62.7303 122.867 62.1609C122.341 61.8908 121.728 61.6097 121.073 61.3098C117.193 59.532 111.867 57.0913 114.651 52.3508C124.35 52.4923 205.402 48.2939 207.726 45.7602C207.874 45.5984 207.921 45.4065 207.907 45.1884C207.745 42.7407 190.165 25.1366 187.763 22.8752C184.334 19.6451 180.799 16.3669 176.999 13.5761C175.014 12.1183 173.186 11.1829 170.73 10.8015C168.009 10.379 165.197 10.3941 162.436 10.4088C162.112 10.4105 161.789 10.4122 161.467 10.4132C156.251 10.4692 151.036 10.5988 145.823 10.8017C135.906 11.158 125.997 11.6762 116.098 12.3564C110.276 12.7704 104.422 13.2721 98.6377 14.0313C96.634 14.2942 94.3025 15.1257 95.0029 17.6172C95.5193 19.4548 96.3874 21.2035 97.2441 22.9291C97.4619 23.3678 97.679 23.805 97.8893 24.2418L102.699 34.2433C103.407 35.7335 104.101 37.2296 104.796 38.7257C104.829 38.7965 104.863 38.8701 104.896 38.9409C105.927 41.1626 106.96 43.3838 108.036 45.5854C108.124 45.7656 108.21 45.9431 108.294 46.118C109.663 48.9422 110.696 51.0739 113.967 52.2133C111.51 57.0241 115.488 59.1139 118.97 60.9427C119.18 61.0529 119.388 61.1622 119.592 61.2711C121.328 62.1943 123.278 63.1239 125.305 64.0904C130.936 66.7749 137.164 69.7439 141.056 73.6528C139.324 74.1363 137.603 74.6751 136.677 76.3766C135.825 77.9425 136.023 80.0004 136.524 81.6453C137.812 85.8832 141.407 89.6311 145.263 91.6411C147.419 92.7649 149.782 93.518 152.153 94.0201C157.295 95.109 172.781 96.4187 177.458 94.9257C178.439 94.6127 179.293 94.0657 179.756 93.1125C180.277 92.0399 180.08 90.7819 179.687 89.7023C179.17 88.2875 178.259 86.8899 177.218 85.8054C191.529 85.863 207.814 84.1739 222.083 82.5875C228.715 81.85 240.115 80.2969 246.439 78.5828C246.651 81.3667 247.153 87.1971 251.064 86.6779C254.235 86.2568 257.655 83.6919 258.321 80.4561C259.126 81.9296 259.463 82.8179 260.033 84.3202C260.061 84.3963 260.091 84.474 260.121 84.5534C260.151 84.2626 260.114 83.8874 260.077 83.5048C260.051 83.2369 260.024 82.9654 260.02 82.7167C259.941 82.0385 259.485 81.338 259.086 80.7259C258.79 80.2714 258.526 79.8656 258.471 79.5538C256.188 66.5483 245.599 58.3236 233.513 53.394C233.151 53.0903 230.862 52.0712 229.566 51.4936C229.215 51.3375 228.937 51.2137 228.789 51.1449C226.695 50.1729 224.541 49.2982 222.385 48.4226C218.673 46.9154 214.954 45.4055 211.528 43.3923C212.387 42.0778 212.609 40.6196 212.413 39.0648C212.181 37.1869 211.198 35.4851 209.69 34.3524C207.256 32.5129 204.374 32.5652 201.532 32.9856C201.416 32.8355 201.277 32.6621 201.149 32.5227C193.486 24.1754 183.503 13.6356 173.41 8.37363C166.959 5.01072 153.203 2.34853 145.842 1.85234C144.415 1.486 140.988 1.23888 138.825 1.08298C138.399 1.05221 138.021 1.025 137.718 1.00112C129.812 0.382725 121.887 0.0510155 113.957 0.00679847C104.302 -0.0391873 94.6463 0.148133 84.9989 0.568275C71.285 1.07717 57.4895 1.93788 43.9019 3.94228C43.03 4.09822 42.146 4.23279 41.2588 4.36784C38.015 4.86165 34.7287 5.36194 31.8319 6.93714C30.4359 7.69646 29.8423 8.67862 29.2081 9.7279C28.8935 10.2484 28.569 10.7854 28.1316 11.3199C25.1764 14.9329 22.362 18.509 19.8114 22.4316C18.4682 24.494 17.1825 26.5938 15.9544 28.7283C15.7461 29.0903 15.5375 29.4589 15.3274 29.8301C14.6074 31.1021 13.8683 32.408 13.068 33.5799C12.6708 34.1617 12.1353 34.7333 11.6141 35.2898C11.3363 35.5864 11.0616 35.8797 10.8148 36.167L11.3681 36.5119C13.8038 33.8939 15.6353 30.7333 17.4553 27.5927C18.2736 26.1807 19.0895 24.7727 19.9569 23.4198C22.5436 19.3852 25.4346 15.7454 28.4012 12.0105L28.6289 11.7238C28.9869 11.2731 29.283 10.773 29.5786 10.2738C30.0552 9.46889 30.531 8.66536 31.2642 8.07199C38.7688 1.9919 98.8967 0.515857 111.589 0.640468C122.875 0.751413 134.074 1.2042 145.302 2.41542C153.159 3.43804 162.572 4.71021 169.987 7.59493C180.241 11.5838 191.162 22.666 198.633 30.7095C200.62 32.8636 202.585 35.0383 204.527 37.2332C204.863 37.6135 205.192 37.9925 205.519 38.3682C207.662 40.8324 209.682 43.1543 212.64 44.7773C215.158 46.1589 217.861 47.2767 220.531 48.3811C220.571 48.3975 220.615 48.4158 220.655 48.4322C221.255 48.6802 221.852 48.9277 222.446 49.1776C226.222 50.7381 229.96 52.3918 233.655 54.1376C233.917 54.2682 234.186 54.4014 234.459 54.5373Z" fill="#A6896C"/>
<path fill-rule="evenodd" clip-rule="evenodd" d="M234.459 54.5373C234.186 54.4014 233.917 54.2682 233.655 54.1376C229.96 52.3918 226.222 50.7381 222.446 49.1776C221.852 48.9277 221.255 48.6802 220.655 48.4322L220.531 48.3811C217.861 47.2767 215.158 46.1589 212.64 44.7773L207.726 45.7602C205.402 48.2939 124.35 52.4923 114.651 52.3508C111.867 57.0913 117.193 59.532 121.073 61.3098C121.728 61.6097 122.341 61.8908 122.867 62.1609C123.977 62.7303 125.118 63.2899 126.27 63.8524L126.567 63.9969L126.768 64.0949C132.115 66.7027 137.688 69.4201 141.828 73.571C142.071 73.5573 142.314 73.5467 142.557 73.539C152.992 73.209 169.014 77.8846 176.728 85.1685C184.316 85.2909 193.886 84.6074 201.538 83.9728C216.328 82.7461 231.833 81.1171 246.321 78.0102C246.231 73.52 246.574 67.9149 249.209 64.1011C245.836 60.1845 239.323 56.9517 234.476 54.5455L234.459 54.5373Z" fill="#F8E9E5"/>
<path d="M167.078 11.127C159.045 10.7588 99.3285 12.7908 96.0631 15.5804C95.7001 15.8907 95.4507 16.401 95.4539 16.8834C95.4587 17.6566 95.8904 18.5296 96.1958 19.2322C98.3162 24.1225 100.884 28.9269 103.173 33.7494C105.474 38.5958 107.589 43.6892 110.186 48.3719C110.575 49.0741 111.08 49.7052 111.678 50.2385C113.984 52.3291 118.804 51.6869 121.798 51.5784C126.088 51.4242 130.377 51.2299 134.664 50.9961C153.265 50.1367 171.849 48.9474 190.407 47.4289C194.182 47.0973 197.953 46.7302 201.721 46.3273C202.82 46.2078 206.849 46.0128 207.289 45.1365C206.578 43.2747 200.67 37.1224 198.895 35.1767C193.873 29.6737 179.744 15.0035 173.636 12.2303C171.564 11.2894 169.309 11.2239 167.078 11.127Z" fill="#ECF2E9"/>
<path d="M145.147 74.1556C133.844 73.4181 135.393 81.7712 141.045 87.7158C147.758 94.777 161.909 94.8103 171.044 94.8428C173.302 94.8413 176.78 95.036 178.654 93.5716C180.909 91.8098 178.28 87.7905 176.769 86.2243C169.569 78.7593 155.077 74.7724 145.147 74.1556Z" fill="#ECF2E9"/>
<path d="M249.809 64.6966L249.618 64.7515C246.54 67.5069 246.405 79.871 247.948 83.6537C249.38 87.1631 251.181 86.1434 253.652 85.0162C256.09 83.7613 258.038 82.0854 257.587 79.0823C256.788 73.7698 253.97 68.129 249.809 64.6966Z" fill="#ECF2E9"/>
<path d="M206.038 33.4458C204.522 33.2878 203.536 33.3501 202.026 33.4591C204.01 35.9115 206.869 38.9694 209.006 41.4025C209.681 41.9207 210.227 42.3521 210.963 42.7917L211.211 42.7029C212.322 41.1002 211.822 38.1048 210.82 36.5424C209.618 34.6691 208.119 33.9369 206.038 33.4458Z" fill="#F5F5F5"/>
<path fill-rule="evenodd" clip-rule="evenodd" d="M4.47272 54.6086C4.41251 57.1601 3.78384 58.9063 3.15734 60.6464C2.73568 61.8176 2.315 62.9861 2.06926 64.3955C1.00426 70.509 -0.631622 85.4108 5.01162 89.5177C5.17953 95.3494 6.09742 100.935 8.97421 106.097C10.9843 109.7 14.1361 113.03 18.5848 112.836C18.7351 112.829 18.8839 112.82 19.0342 112.807C19.6738 112.858 22.4387 112.706 23.0335 112.548L23.1323 112.545C27.1689 112.412 31.0927 112.282 33.9954 109.061C36.143 106.677 37.1872 103.884 37.8812 100.8C48.776 104.23 59.6403 107.763 70.4694 111.4L100.437 121.192C101.355 128.037 105.079 136.84 110.7 141.104C114.483 144.207 118.438 144.283 123.086 143.746C124.139 143.625 125.28 143.52 126.43 143.415C127.448 143.321 128.474 143.227 129.449 143.121C136.111 142.395 139.691 138.348 142.177 132.372C142.28 132.109 142.294 132.1 142.451 131.999C142.502 131.967 142.568 131.925 142.656 131.862C142.174 131.696 141.702 131.502 141.242 131.281C136.693 129.138 135.51 123.186 134.498 118.095C134.29 117.05 134.09 116.042 133.869 115.11C133.082 111.698 132.096 108.335 130.916 105.038C128.253 97.7326 123.953 89.4037 116.629 85.8941C109.304 82.3537 103.286 86.9592 100.416 93.6577C97.1841 101.199 96.6883 112.562 99.6147 120.22C96.5024 119.281 93.2257 118.183 90.0136 117.107C88.5602 116.619 87.1195 116.137 85.7137 115.675L57.6158 106.45C52.4267 104.738 47.228 103.057 42.0197 101.408C40.7932 101.027 39.5601 100.657 38.3282 100.287C36.7113 99.8018 35.0959 99.317 33.5013 98.8084C29.8212 97.635 29.0107 93.3351 28.3252 89.6984C28.2098 89.0858 28.0979 88.492 27.9764 87.9352C26.8026 82.565 25.5537 78.2337 22.8161 73.3888C19.5859 67.6695 12.8361 62.1488 7.59739 69.328C3.96902 74.499 3.40931 82.1293 4.3288 88.2811C0.538918 83.1728 1.46801 70.6142 2.66254 64.5714C2.98494 62.9417 3.38586 61.8196 3.77577 60.7283C4.35284 59.1132 4.90578 57.5656 5.14436 54.5398L4.47272 54.6086ZM23.3758 92.7475L22.6977 98.7711C22.4099 103.418 17.7501 109.463 13.3478 104.379C9.67781 99.8324 8.69916 94.335 8.87346 88.5541C9.18049 78.3913 16.466 70.8697 21.8758 83.8108C22.6674 85.7023 23.5165 90.65 23.3758 92.7475ZM15.8584 88.0558C16.0902 88.0418 16.3237 88.0436 16.5572 88.0613C18.6968 89.9631 19.2549 95.5587 15.6665 95.4405C13.7859 93.8904 13.1111 90.7183 14.6798 88.6399C14.9389 88.2965 15.4234 88.0791 15.8584 88.0558Z" fill="#A6896C"/>
<path fill-rule="evenodd" clip-rule="evenodd" d="M15.4905 70.8279C12.9112 71.3398 10.8931 72.4763 9.38515 74.9074C3.29096 84.727 4.4903 103.325 13.8914 110.812C15.1307 111.8 16.9649 112.139 18.5065 112.184L18.4505 112.331L16.8402 112.454C16.9428 112.466 17.0612 112.479 17.1894 112.492C17.7925 112.556 18.6136 112.642 19.0342 112.807C19.6738 112.858 22.4387 112.706 23.0335 112.548C22.9164 112.516 22.5656 112.448 22.1768 112.372C21.7431 112.287 21.2622 112.194 21.0059 112.132C20.9041 111.929 20.9459 111.903 21.1397 111.781C21.1773 111.757 21.2206 111.73 21.2697 111.697C24.1753 109.755 25.6513 106.301 26.6443 103.035C27.5526 100.051 28.5584 91.0455 27.0729 88.3878L26.881 88.4343C26.7568 88.2346 26.6187 87.4223 26.5357 86.9344C26.5172 86.8255 26.5015 86.7328 26.4892 86.6666C26.0031 83.9205 25.1379 81.256 23.921 78.75C21.9125 74.5643 19.8705 72.3755 15.4905 70.8279ZM23.3758 92.7475L22.6977 98.7711C22.4099 103.418 17.7501 109.463 13.3478 104.379C9.67781 99.8324 8.69916 94.335 8.87346 88.5541C9.18049 78.3913 16.466 70.8697 21.8758 83.8108C22.6674 85.7023 23.5165 90.65 23.3758 92.7475ZM15.8584 88.0558C16.0902 88.0418 16.3237 88.0436 16.5572 88.0613C18.6968 89.9631 19.2549 95.5587 15.6665 95.4405C13.7859 93.8904 13.1111 90.7183 14.6798 88.6399C14.9389 88.2965 15.4234 88.0791 15.8584 88.0558Z" fill="#FBF0E5"/>
<path d="M21.0059 112.132C20.8843 111.89 20.9675 111.899 21.2697 111.697C24.1753 109.755 25.6513 106.301 26.6443 103.035C27.5526 100.051 28.5584 91.0455 27.0729 88.3878L26.881 88.4343C27.8037 95.4941 27.1096 109.958 18.5065 112.184L18.4505 112.331L16.8402 112.454C17.4255 112.522 18.5241 112.608 19.0342 112.807C19.6738 112.858 22.4387 112.706 23.0335 112.548C22.7857 112.481 21.492 112.249 21.0059 112.132Z" fill="#A6896C"/>
<path fill-rule="evenodd" clip-rule="evenodd" d="M16.3294 76.4847C5.77051 75.2098 5.46668 102.492 15.9536 106.789C19.1054 107.283 21.1827 105.152 22.3037 102.396C25.0893 95.5453 24.3905 87.0234 20.8005 80.6009C19.6699 78.5775 18.4322 77.3901 16.3294 76.4847ZM23.3758 92.7475L22.6977 98.7711C22.4099 103.418 17.7501 109.463 13.3478 104.379C9.67781 99.8324 8.69916 94.335 8.87346 88.5541C9.18049 78.3913 16.466 70.8697 21.8758 83.8108C22.6674 85.7023 23.5165 90.65 23.3758 92.7475ZM15.8584 88.0558C16.0902 88.0418 16.3237 88.0436 16.5572 88.0613C18.6968 89.9631 19.2549 95.5587 15.6665 95.4405C13.7859 93.8904 13.1111 90.7183 14.6798 88.6399C14.9389 88.2965 15.4234 88.0791 15.8584 88.0558Z" fill="#A6896C"/>
<path fill-rule="evenodd" clip-rule="evenodd" d="M15.8584 88.0558C16.0902 88.0418 16.3237 88.0436 16.5572 88.0613C18.6968 89.9631 19.2549 95.5587 15.6665 95.4405C13.7859 93.8904 13.1111 90.7183 14.6798 88.6399C14.9389 88.2965 15.4234 88.0791 15.8584 88.0558Z" fill="#F5F5F5"/>
<path d="M16.5572 88.0613C16.3237 88.0436 16.0902 88.0418 15.8584 88.0558C15.4234 88.0791 14.9389 88.2965 14.6798 88.6399C13.1111 90.7183 13.7859 93.8904 15.6665 95.4405C19.2549 95.5587 18.6968 89.9631 16.5572 88.0613Z" fill="#A6896C"/>
<path d="M16.127 88.4706C13.5972 88.8982 14.2065 93.3562 15.9783 94.9832C18.5672 94.5694 17.9068 90.1065 16.127 88.4706Z" fill="#F5F5F5"/>
<path d="M19.8945 70.2566C18.8135 70.4756 16.757 70.6365 15.4905 70.8279C19.8705 72.3755 21.9125 74.5643 23.921 78.75C25.1379 81.256 26.0031 83.9205 26.4892 86.6666C26.5564 87.0293 26.7291 88.1901 26.881 88.4343L27.0729 88.3878C28.5584 91.0455 27.5526 100.051 26.6443 103.035C25.6513 106.301 24.1753 109.755 21.2697 111.697C20.9675 111.899 20.8843 111.89 21.0059 112.132C30.4278 111.423 34.7998 111.237 37.2832 100.706C32.5227 99.1569 29.6586 98.752 28.4945 93.0662C26.6763 84.1806 25.3587 77.6688 19.8945 70.2566Z" fill="#FBF0E5"/>
<path d="M120.298 88.9837C117.969 89.1873 115.846 89.3423 113.554 89.847C110.252 90.3614 107.423 92.0966 105.491 94.9394C96.9202 107.554 99.2869 131.12 111.37 140.792C116.567 144.954 123.305 143.654 126.815 138.179C130.714 132.52 131.802 125.789 131.661 119.021L132.113 119.295C132.879 121.082 131.53 129.078 130.804 131.207C128.906 136.774 126.99 140.485 121.783 143.27C127.036 142.493 132.448 143.119 136.703 139.432C139.165 137.297 140.339 135.085 141.583 132.14C135.657 129.422 135.19 123.792 133.89 118.102C131.459 107.47 128.458 96.6995 120.298 88.9837Z" fill="#FBF0E5"/>
<path d="M120.298 88.9837C117.969 89.1873 115.846 89.3423 113.554 89.847C114.386 89.9636 116.245 90.2109 116.981 90.495C119.938 91.6389 122.453 93.7732 124.329 96.3101C127.938 101.192 129.815 107.238 130.935 113.145C131.243 114.769 131.32 117.764 131.661 119.021L132.113 119.295C132.879 121.082 131.53 129.078 130.804 131.207C128.906 136.774 126.99 140.485 121.783 143.27C127.036 142.493 132.448 143.119 136.703 139.432C139.165 137.297 140.339 135.085 141.583 132.14C135.657 129.422 135.19 123.792 133.89 118.102C131.459 107.47 128.458 96.6995 120.298 88.9837Z" fill="#FBF0E5"/>
<path d="M114.376 96.8085C108.024 96.5675 105.1 104.078 104.335 109.301C103.125 117.576 104.775 127.539 110.625 133.83C112.369 135.706 114.299 136.553 116.762 136.946C124.618 136.879 127.015 126.749 127.284 120.483C127.623 112.545 123.688 98.1063 114.376 96.8085Z" fill="#A6896C"/>
<path d="M114.274 97.4498C100.541 97.5908 101.414 133.467 116.69 136.327C131.146 136.436 129.371 99.2837 114.274 97.4498Z" fill="#F5F5F5"/>
<path d="M115.286 112.683C111.138 113.286 111.632 120.314 115.337 121.972C119.503 121.68 119.229 113.859 115.286 112.683Z" fill="#A6896C"/>
<path d="M115.479 113.299C112.035 113.347 112.265 119.422 115.208 121.29C118.868 121.045 118.491 115.174 115.479 113.299Z" fill="#F5F5F5"/>
<path d="M112.897 85.3824C111.415 85.1912 109.908 85.3544 108.499 85.8585C105.165 87.0721 102.73 90.1655 101.273 93.3009C97.627 101.145 97.352 112.103 100.213 120.207L99.8434 115.365C99.7091 107.693 100.721 99.8438 105.707 93.6202C109.388 89.0257 114.117 88.9061 119.536 88.4261C117.355 86.7205 115.588 85.884 112.897 85.3824Z" fill="#F5F5F5"/>
<path d="M13.7891 66.5715C5.18591 66.2316 3.65077 82.17 5.04999 88.2555C5.14113 86.7262 5.29146 85.3785 5.47535 83.8555C6.05103 80.3928 7.24877 76.5825 9.41715 73.7763C12.1468 70.2434 15.2763 70.1341 19.2772 69.6761C17.4335 67.8563 16.2981 67.1236 13.7891 66.5715Z" fill="#F5F5F5"/>
<path d="M10.8148 36.167C8.29624 37.4334 7.0329 38.9606 6.15659 41.6966C4.98605 45.3513 4.04416 50.7709 4.47272 54.6086L5.14436 54.5398C7.71572 52.286 9.20448 47.3182 10.4726 44.1391C11.3777 41.8683 12.5467 38.8205 11.3681 36.5119L10.8148 36.167Z" fill="#A6896C"/>
<path d="M10.9443 36.8073C9.17726 37.619 8.48805 38.4324 7.48861 40.0927C6.05901 42.4687 4.41673 51.4253 5.14912 53.7992C7.46462 51.0741 8.80467 46.7283 10.1095 43.4027C10.9939 41.1512 11.5647 39.21 10.9443 36.8073Z" fill="#F5F5F5"/>
<path d="M241.113 124.571C235.539 125.508 230.009 126.793 224.27 127.72C210.176 129.986 195.989 131.624 181.752 132.631C173.947 132.933 166.441 133.481 158.565 133.26C152.867 133.101 148.293 133.256 142.656 131.862C142.295 132.12 142.313 132.024 142.177 132.372C147.595 133.917 155.275 133.908 160.953 133.916C168.156 133.962 175.358 133.73 182.543 133.218C183.84 133.237 186.545 132.969 187.849 132.858C191.232 132.568 194.612 132.241 197.989 131.877C212.876 130.375 227.672 128.074 242.315 124.982L241.113 124.571Z" fill="#946D48"/>
<path d="M261.176 96.5444C260.809 99.9021 260.861 103.793 260.583 107.21C260.522 107.956 260.598 111.118 260.456 111.599C259.61 114.465 258.213 117.689 255.794 119.51C251.9 122.442 245.751 123.357 241.113 124.571L242.315 124.982C246.902 123.986 253.631 122.606 257.074 119.262C259.519 116.887 261.342 112.619 261.196 109.197C261.053 105.864 261.64 102.451 261.655 99.0707C261.098 98.4701 261.252 97.5131 261.176 96.5444Z" fill="#A6896C"/>
<path d="M261.655 99.0707C261.848 94.2689 262.195 87.0771 260.02 82.7167C260.03 83.3207 260.172 84.0591 260.121 84.5534C261.141 89.0419 261.154 91.8654 261.175 96.3742C261.175 96.4307 261.176 96.4874 261.176 96.5444C261.252 97.5131 261.098 98.4701 261.655 99.0707Z" fill="#946D48"/>
<path d="M64.9893 6.78565C63.0879 6.7178 61.1866 6.70252 59.2853 6.73999C55.9895 6.80671 41.9142 7.75891 40.0864 9.67005L40.136 9.88181C41.2442 9.77392 42.322 9.30361 43.395 9.01564C44.5799 8.69792 45.8112 8.51076 47.0233 8.33421C55.8904 7.04372 68.5617 6.65203 77.2544 8.74374C82.685 10.0505 86.7723 12.5335 89.7098 17.3873C93.4949 23.6407 103.328 48.0093 101.612 54.7578C101.411 55.5527 101.019 56.292 100.288 56.708C98.4298 57.7671 95.1356 56.376 93.2263 55.8326C95.1996 55.4214 96.4773 54.5849 96.8419 52.5021C97.1761 50.6049 94.6447 49.897 94.6431 49.3792C94.6351 46.7009 95.3691 43.8281 95.2236 41.1216C95.1586 40.1285 94.1061 37.3297 93.7057 36.265C93.7021 36.2552 93.6984 36.2455 93.6948 36.236C91.5264 30.4767 88.9343 23.479 85.1844 18.6188C80.4654 12.5049 70.9667 11.1247 63.7468 10.379C61.1242 18.3297 57.8621 37.041 57.2736 45.6028C55.9399 45.2963 54.3008 44.7861 52.9608 44.4086C54.296 37.8013 55.2587 31.3192 56.7299 24.5881C57.4847 21.2382 58.2586 17.893 59.0534 14.5524C59.3157 13.4272 60.2079 11.0384 59.5043 10.1818C57.3695 9.5173 46.6603 10.0633 44.0474 10.37C43.0879 10.4825 41.2777 10.8726 40.2543 11.0382C39.5859 11.1463 39.725 10.6414 39.0678 10.761L38.8695 11.263C32.9624 13.0736 30.9539 16.364 27.8868 21.5103C25.4882 25.5322 23.1199 29.5412 25.6897 34.0853C24.2777 35.2449 24.3176 36.1387 23.4493 37.12C19.9409 41.0818 19.2357 43.2531 18.6888 48.4381C17.7053 57.7451 22.3523 65.2289 25.7312 73.5466C28.4241 79.6642 29.5067 88.1003 34.456 92.8755C36.2805 94.6359 44.0202 96.8187 46.6028 97.6557L64.113 103.268L80.8652 108.577C83.9642 109.555 87.0889 110.569 90.2248 111.417C91.7087 111.785 93.4262 111.668 93.5941 109.766C93.9551 105.972 94.0053 102.207 94.0561 98.3987C94.0577 98.2769 94.0594 98.1551 94.061 98.0332C94.1985 87.735 94.2577 77.3278 95.3211 67.0779C95.6537 63.8842 96.9554 60.7268 98.0812 57.7499C99.2741 57.7358 100.282 57.6295 101.212 56.8056C102.121 56.0028 102.351 54.7091 102.41 53.5549C102.843 45.1783 93.2807 19.7613 87.6598 13.6009C82.1445 7.55406 72.6042 7.1061 64.9893 6.78565Z" fill="#A6896C"/>
<path d="M53.8579 45.3251L53.5493 45.2875C52.633 45.7111 50.8148 50.6549 50.6613 51.7213C49.1246 62.3564 49.5755 73.2095 50.3527 83.8799C50.7461 89.2857 50.9044 93.6217 52.3116 98.8637L77.6782 106.886C81.8695 108.212 86.2686 109.696 90.519 110.813C91.3058 111.019 91.8511 110.968 92.6042 110.702C92.7801 110.396 93.0328 109.91 93.06 109.559C93.3974 105.06 93.415 100.574 93.447 96.0676C93.495 90.2588 93.6405 84.4512 93.8851 78.6474C94.053 74.7164 94.2497 70.6775 94.7471 66.7708C95.15 63.6121 96.3621 60.5677 97.4799 57.5986C95.1132 57.0026 92.0414 55.9677 89.6619 55.6762C83.7324 54.9499 71.5872 57.8257 70.0217 49.6276C64.6215 48.2412 59.2325 46.8069 53.8579 45.3251Z" fill="#F5F5F5"/>
<path d="M26.1103 34.6419C25.1444 35.0222 20.5614 42.0813 20.1552 43.4442C16.7139 54.9829 22.6002 64.1021 26.7003 74.4119C29.0014 80.1956 30.3223 88.3129 35.1836 92.6237C37.6142 94.5228 45.808 96.7426 49.1118 97.7935C49.7274 98.0336 50.9572 98.3711 51.6336 98.5793C51.5472 98.2908 51.4657 98.0014 51.3857 97.711C50.2743 93.6334 50.2008 89.9316 49.8682 85.7768C49.1342 76.705 48.672 67.6965 49.3197 58.6064C49.7083 53.1562 49.9817 49.8682 52.7546 44.9704C46.4477 43.2591 30.8356 38.7943 26.1103 34.6419Z" fill="#F5F5F5"/>
<path d="M64.5543 11.1324L64.1945 11.136C63.9131 11.6007 63.2846 14.5944 63.1199 15.2786C60.6797 25.4128 59.2773 35.4727 57.7917 45.7595L69.9449 48.9396C70.0505 47.8424 70.124 46.7999 70.5238 45.7544C72.0637 41.7305 77.1105 40.6995 80.8988 40.2647C83.4014 39.9772 85.6513 40.0092 88.0276 40.9217C88.2275 41.0166 88.4226 41.1192 88.6145 41.229C93.0264 43.7772 93.1831 49.4582 93.7492 49.7724C94.173 49.3041 94.3664 44.3044 94.5583 43.3191C94.9869 40.6902 93.8244 38.5695 92.9944 36.2582C86.9514 19.4179 83.4653 12.7283 64.5543 11.1324Z" fill="#F5F5F5"/>
<path d="M59.031 10.656C52.0397 10.4673 46.4812 10.4102 39.5475 11.7838C35.9927 19.9177 33.1607 28.3519 31.0835 36.9877C32.6922 37.7244 34.5423 38.3965 36.2038 39.0394C41.6312 41.0515 46.9034 42.6391 52.4379 44.3044C53.4645 37.4551 54.7294 30.6442 56.2326 23.8845C57.1953 19.5896 58.3226 15.2472 59.2501 10.9697L59.031 10.656Z" fill="#F5F5F5"/>
<path d="M85.477 40.845C82.202 40.4511 76.1686 41.2404 73.3942 43.1998C71.8686 44.2678 70.85 45.922 70.5781 47.7714C69.8058 52.841 74.2305 54.2582 78.2171 54.7659C84.8614 55.2075 97.9548 56.3784 90.8644 44.2407C89.7642 42.3569 87.6182 41.2277 85.477 40.845Z" fill="#F5F5F5"/>
<path d="M38.7943 11.9557C36.1318 12.7442 33.2326 14.4183 31.7535 16.8193C28.6864 21.7934 21.9797 29.0901 27.0185 34.6825C28.0435 35.5816 29.2749 36.1479 30.4886 36.7422C32.9432 26.9143 35.0956 21.1249 38.7943 11.9557Z" fill="#F5F5F5"/>
<path d="M94.2785 50.2968L93.8339 50.3176C92.6122 51.1432 94.4816 52.92 89.3484 55.0332L91.4225 55.1089C92.5626 55.2014 92.9256 55.213 94.0834 55.0941C96.1686 53.8495 97.5742 50.9787 94.2785 50.2968Z" fill="#F5F5F5"/>
<path d="M239.944 98.383C238.489 98.1751 235.484 98.7497 233.941 98.9687C230.404 99.4837 226.864 99.9724 223.321 100.435C218.755 101.03 214.184 101.584 209.608 102.097C198.015 103.407 199.741 101.889 199.729 113.643C197.446 113.991 194.959 113.948 192.665 114.284C187.381 115.094 176.417 113.596 176.142 121.378C175.944 127.008 187.719 124.916 191.273 124.605C192.802 124.508 194.379 124.372 195.917 124.205C213.695 122.292 231.787 120.492 249.039 115.623C254.303 114.137 255.568 105.441 250.685 105.663C249.305 105.725 243.063 107.25 241.212 107.643C241.222 105.263 241.402 102.57 241.163 100.223C241.065 99.257 240.663 98.9047 239.944 98.383Z" fill="#A6896C"/>
<path d="M251.921 106.208C251.003 106.098 242.815 107.94 241.242 108.248C241.243 109.508 241.257 111.309 239.738 111.773C238.248 112.227 236.599 112.429 235.055 112.679C232.191 113.147 229.323 113.587 226.451 114C221.179 114.778 215.899 115.5 210.611 116.163C207.858 116.514 205.093 116.87 202.329 117.122C200.396 117.298 200.067 115.99 199.56 114.512C198.389 114.033 188.366 115.56 185.992 115.479C182.103 115.345 175.574 117.126 176.919 122.501C177.113 122.851 177.355 123.173 177.638 123.457C178.597 124.433 180.036 124.539 181.324 124.544C191.098 124.584 246.477 118.581 251.406 113.568C252.553 112.402 253.096 110.675 253.062 109.057C253.038 107.875 252.778 107.026 251.921 106.208Z" fill="#F5F5F5"/>
<path d="M239.47 98.8258C231.481 100.032 223.475 101.119 215.454 102.089C211.156 102.605 206.766 103.02 202.475 103.621C201.963 103.751 201.038 103.817 200.793 104.332C200.019 106.04 200.229 108.694 200.335 110.604C200.454 112.74 199.518 115.285 201.546 116.483C202.92 116.566 209.042 115.701 210.613 115.501C218.879 114.471 227.126 113.299 235.352 111.987C242.33 110.883 240.372 110.515 240.628 103.887C240.702 101.979 241.216 99.9692 239.47 98.8258Z" fill="#F8E9E5"/>
<path fill-rule="evenodd" clip-rule="evenodd" d="M104.796 38.7257L104.896 38.9409C105.927 41.1626 106.96 43.3838 108.036 45.5854C108.123 45.7634 108.211 45.9451 108.294 46.118C109.663 48.9422 110.696 51.0739 113.967 52.2133C111.51 57.0241 115.488 59.1139 118.97 60.9427C119.18 61.0529 119.388 61.1622 119.592 61.2711C121.328 62.1943 123.278 63.1239 125.305 64.0904C130.936 66.7749 137.164 69.7439 141.056 73.6528C139.324 74.1363 137.603 74.6751 136.677 76.3766C135.825 77.9425 136.023 80.0004 136.524 81.6453C137.812 85.8832 141.407 89.6311 145.263 91.6411C147.419 92.7649 149.782 93.518 152.153 94.0201C157.295 95.109 172.781 96.4187 177.458 94.9257C178.439 94.6127 179.293 94.0657 179.756 93.1125C180.277 92.0399 180.08 90.7819 179.687 89.7023C179.17 88.2875 178.259 86.8899 177.218 85.8054C191.529 85.863 207.814 84.1739 222.083 82.5875C228.715 81.85 240.115 80.2969 246.439 78.5828C246.651 81.3667 247.153 87.1971 251.064 86.6779C254.235 86.2568 257.655 83.6919 258.321 80.4561C259.126 81.9296 259.463 82.8179 260.033 84.3202L260.121 84.5534C261.141 89.0419 261.154 91.8654 261.175 96.3742L261.176 96.5444C260.972 98.4173 260.897 100.456 260.823 102.486C260.765 104.095 260.706 105.699 260.583 107.21C260.559 107.501 260.557 108.16 260.553 108.884C260.548 110.016 260.543 111.306 260.456 111.599C259.61 114.465 258.213 117.689 255.794 119.51C252.694 121.844 248.164 122.9 244.106 123.846C243.067 124.088 242.059 124.323 241.113 124.571C238.484 125.013 235.864 125.532 233.228 126.055C230.275 126.641 227.302 127.23 224.27 127.72C210.176 129.986 195.989 131.624 181.752 132.631C179.81 132.706 177.886 132.796 175.971 132.886C170.189 133.158 164.481 133.426 158.565 133.26C157.649 133.235 156.762 133.217 155.895 133.2C151.369 133.111 147.387 133.032 142.656 131.862C142.174 131.696 141.702 131.502 141.242 131.281C136.693 129.138 135.51 123.186 134.498 118.095C134.29 117.05 134.09 116.042 133.869 115.11C133.082 111.698 132.096 108.335 130.916 105.038C128.253 97.7326 123.953 89.4037 116.629 85.8941C109.304 82.3537 103.286 86.9592 100.416 93.6577C97.1841 101.199 96.6883 112.562 99.6147 120.22C96.5024 119.281 93.2257 118.183 90.0136 117.107C88.5602 116.619 87.1195 116.137 85.7137 115.675L57.6158 106.45C52.4267 104.738 47.228 103.057 42.0197 101.408C40.7932 101.027 39.5601 100.657 38.3282 100.287C36.7113 99.8018 35.0959 99.317 33.5013 98.8084C29.8212 97.635 29.0107 93.3351 28.3252 89.6984C28.2098 89.0858 28.0979 88.492 27.9764 87.9352C26.8026 82.565 25.5537 78.2337 22.8161 73.3888C19.5859 67.6695 12.8361 62.1488 7.59739 69.328C3.96902 74.499 3.40931 82.1293 4.3288 88.2811C0.538918 83.1728 1.46801 70.6142 2.66254 64.5714C2.98494 62.9417 3.38586 61.8196 3.77577 60.7283C4.35284 59.1132 4.90578 57.5656 5.14436 54.5398C7.26292 52.6828 8.64659 48.9836 9.77743 45.9604C10.0191 45.3142 10.2493 44.6989 10.4726 44.1391C11.3777 41.8683 12.5467 38.8205 11.3681 36.5119C13.8038 33.8939 15.6353 30.7333 17.4553 27.5927C18.2736 26.1807 19.0895 24.7727 19.9569 23.4198C22.5436 19.3852 25.4346 15.7454 28.4012 12.0105L28.6289 11.7238C28.9869 11.2731 29.283 10.773 29.5786 10.2738C30.0552 9.46889 30.531 8.66536 31.2642 8.07199C38.7688 1.9919 98.8967 0.515857 111.589 0.640468C122.875 0.751413 134.074 1.2042 145.302 2.41542C153.159 3.43804 162.572 4.71021 169.987 7.59493C180.241 11.5838 191.162 22.666 198.633 30.7095C200.62 32.8636 202.585 35.0383 204.527 37.2332C204.863 37.6135 205.192 37.9925 205.519 38.3682C207.662 40.8324 209.682 43.1543 212.64 44.7773L207.726 45.7602C207.874 45.5984 207.921 45.4065 207.907 45.1884C207.745 42.7407 190.165 25.1366 187.763 22.8752C184.334 19.6451 180.799 16.3669 176.999 13.5761C175.014 12.1183 173.186 11.1829 170.73 10.8015C168.009 10.379 165.197 10.3941 162.436 10.4088C162.112 10.4105 161.789 10.4122 161.467 10.4132C156.251 10.4692 151.036 10.5988 145.823 10.8017C135.906 11.158 125.997 11.6762 116.098 12.3564C110.276 12.7704 104.422 13.2721 98.6377 14.0313C96.634 14.2942 94.3025 15.1257 95.0029 17.6172C95.5193 19.4548 96.3874 21.2035 97.2441 22.9291C97.4619 23.3678 97.679 23.805 97.8893 24.2418L102.699 34.2433C103.407 35.7335 104.101 37.2296 104.796 38.7257ZM64.9893 6.78565C63.0879 6.7178 61.1866 6.70252 59.2853 6.73999C55.9895 6.80671 41.9142 7.75891 40.0864 9.67005L40.136 9.88181C40.8819 9.80919 41.6141 9.57237 42.3403 9.33747C42.6929 9.2234 43.0442 9.10978 43.395 9.01564C44.5799 8.69792 45.8112 8.51076 47.0233 8.33421C55.8904 7.04372 68.5617 6.65203 77.2544 8.74374C82.685 10.0505 86.7723 12.5335 89.7098 17.3873C93.4949 23.6407 103.328 48.0093 101.612 54.7578C101.411 55.5527 101.019 56.292 100.288 56.708C98.7435 57.5883 96.207 56.7759 94.2982 56.1645C93.9105 56.0403 93.5486 55.9244 93.2263 55.8326C95.1996 55.4214 96.4773 54.5849 96.8419 52.5021C97.0658 51.231 96.0034 50.4938 95.2773 49.9899C94.9197 49.7417 94.6436 49.5501 94.6431 49.3792C94.6394 48.1596 94.7897 46.8997 94.9406 45.6335C95.1212 44.119 95.3028 42.5956 95.2236 41.1216C95.1586 40.1285 94.1061 37.3297 93.7057 36.265L93.6948 36.236L93.557 35.8698C91.4165 30.1823 88.8551 23.3764 85.1844 18.6188C80.4654 12.5049 70.9667 11.1247 63.7468 10.379C61.1242 18.3297 57.8621 37.041 57.2736 45.6028C56.3188 45.3833 55.2074 45.0595 54.1613 44.7547C53.7462 44.6338 53.3415 44.5158 52.9608 44.4086C53.5351 41.5665 54.0406 38.7476 54.5472 35.9221C55.2183 32.1788 55.8915 28.4239 56.7299 24.5881C57.4847 21.2382 58.2586 17.893 59.0534 14.5524C59.1036 14.3371 59.1769 14.0754 59.2576 13.7871C59.5987 12.569 60.0733 10.8744 59.5043 10.1818C57.3695 9.5173 46.6603 10.0633 44.0474 10.37C43.4645 10.4383 42.5677 10.6091 41.724 10.7698C41.1789 10.8736 40.656 10.9732 40.2543 11.0382C39.9205 11.0922 39.7881 10.9933 39.6574 10.8957C39.5263 10.7978 39.3968 10.7011 39.0678 10.761L38.8695 11.263C32.9624 13.0736 30.9539 16.364 27.8868 21.5103C25.4882 25.5322 23.1199 29.5412 25.6897 34.0853C24.8379 34.7847 24.5145 35.3875 24.2014 35.9711C23.9954 36.355 23.7939 36.7306 23.4493 37.12C19.9409 41.0818 19.2357 43.2531 18.6888 48.4381C17.9049 55.8567 20.6984 62.1169 23.5756 68.5645C24.3079 70.2057 25.0457 71.859 25.7312 73.5466C26.5881 75.4931 27.2819 77.6743 27.989 79.8976C29.5045 84.6619 31.0814 89.6197 34.456 92.8755C36.0051 94.3702 41.8183 96.1693 45.1188 97.1907C45.7056 97.3723 46.2129 97.5294 46.6028 97.6557L64.113 103.268L80.8652 108.577C81.319 108.721 81.7734 108.865 82.2283 109.009C84.8796 109.848 87.5481 110.694 90.2248 111.417C91.7087 111.785 93.4262 111.668 93.5941 109.766C93.9551 105.972 94.0053 102.207 94.0561 98.3987L94.061 98.0332C94.0711 97.277 94.0808 96.5202 94.0905 95.7628C94.2126 86.2074 94.3358 76.5751 95.3211 67.0779C95.6211 64.1977 96.7092 61.3469 97.7457 58.6316C97.8585 58.336 97.9707 58.0421 98.0812 57.7499C99.2741 57.7358 100.282 57.6295 101.212 56.8056C102.121 56.0028 102.351 54.7091 102.41 53.5549C102.843 45.1783 93.2807 19.7613 87.6598 13.6009C82.1445 7.55406 72.6042 7.1061 64.9893 6.78565ZM234.953 98.8139C234.577 98.8731 234.233 98.9273 233.941 98.9687C230.404 99.4837 226.864 99.9724 223.321 100.435C218.755 101.03 214.184 101.584 209.608 102.097C203.889 102.743 201.411 102.701 200.367 103.904C199.295 105.139 199.735 107.688 199.729 113.643C198.569 113.82 197.356 113.896 196.143 113.972C194.969 114.045 193.794 114.119 192.665 114.284C191.561 114.453 190.208 114.522 188.756 114.595C183.264 114.874 176.359 115.223 176.142 121.378C175.967 126.353 185.143 125.298 189.732 124.771C190.336 124.701 190.86 124.641 191.273 124.605C192.802 124.508 194.379 124.372 195.917 124.205C196.703 124.12 197.489 124.036 198.276 123.952C215.292 122.127 232.549 120.277 249.039 115.623C254.303 114.137 255.568 105.441 250.685 105.663C249.665 105.709 245.991 106.553 243.395 107.15C242.478 107.361 241.695 107.541 241.212 107.643C241.215 106.966 241.231 106.262 241.248 105.549C241.29 103.757 241.334 101.901 241.163 100.223C241.065 99.257 240.663 98.9047 239.944 98.383C238.764 98.2144 236.566 98.5603 234.953 98.8139Z" fill="#F5F5F5"/>
<path fill-rule="evenodd" clip-rule="evenodd" d="M22.6977 98.7711L23.3758 92.7475C23.5165 90.65 22.6674 85.7023 21.8758 83.8108C16.466 70.8697 9.18049 78.3913 8.87346 88.5541C8.69916 94.335 9.67781 99.8324 13.3478 104.379C17.7501 109.463 22.4099 103.418 22.6977 98.7711ZM15.8584 88.0558C16.0902 88.0418 16.3237 88.0436 16.5572 88.0613C18.6968 89.9631 19.2549 95.5587 15.6665 95.4405C13.7859 93.8904 13.1111 90.7183 14.6798 88.6399C14.9389 88.2965 15.4234 88.0791 15.8584 88.0558Z" fill="#F5F5F5"/>
</g>
</g>
</svg>
